SplineFontDB: 3.2
FontName: Untitled1
FullName: Untitled1
FamilyName: Untitled1
Weight: Regular
Copyright: Copyright (c) 2020, Irohamaru
UComments: "2020-7-19: Created with FontForge (http://fontforge.org)"
Version: 001.000
ItalicAngle: 0
UnderlinePosition: 0
UnderlineWidth: 0
Ascent: 1024
Descent: 0
InvalidEm: 0
LayerCount: 2
Layer: 0 0 "+gMyXYgAA" 1
Layer: 1 0 "+Uk2XYgAA" 0
XUID: [1021 473 1708084374 21161]
StyleMap: 0x0000
FSType: 0
OS2Version: 0
OS2_WeightWidthSlopeOnly: 0
OS2_UseTypoMetrics: 1
CreationTime: 1595084419
ModificationTime: 1598064041
PfmFamily: 17
TTFWeight: 400
TTFWidth: 5
LineGap: 92
VLineGap: 92
OS2TypoAscent: 0
OS2TypoAOffset: 1
OS2TypoDescent: 0
OS2TypoDOffset: 1
OS2TypoLinegap: 92
OS2WinAscent: 0
OS2WinAOffset: 1
OS2WinDescent: 0
OS2WinDOffset: 1
HheadAscent: 0
HheadAOffset: 1
HheadDescent: 0
HheadDOffset: 1
OS2Vendor: 'PfEd'
MarkAttachClasses: 1
DEI: 91125
LangName: 1033
Encoding: UnicodeBmp
UnicodeInterp: none
NameList: AGL For New Fonts
DisplaySize: -48
AntiAlias: 1
FitToEm: 0
WinInfo: 0 32 8
BeginPrivate: 0
EndPrivate
Grid
512 1439 m 0
 512 -609 l 1024
-1024 1024 m 0
 2048 1024 l 1024
1024 1335 m 0
 1024 -713 l 1024
  Named: "end_r"
-1008 512 m 4
 2064 512 l 1028
  Named: "center_h"
EndSplineSet
TeXData: 1 0 0 0 0 0 0 1048576 0 783286 444596 497025 792723 393216 433062 380633 303038 157286 324010 404750 52429 2506097 1059062 262144
BeginChars: 65536 26

StartChar: one
Encoding: 49 49 0
Width: 150
VWidth: 2048
Flags: HW
LayerCount: 2
Fore
SplineSet
90.4609375 317.879882812 m 5
 69.3408203125 317.879882812 l 5
 69.3408203125 427.439453125 l 6
 69.3408203125 430.879882812 69.3603515625 434.559570312 69.400390625 438.479492188 c 132
 69.4404296875 442.399414062 69.5205078125 446.299804688 69.640625 450.1796875 c 132
 69.7607421875 454.059570312 69.880859375 457.779296875 70 461.33984375 c 132
 70.1201171875 464.899414062 70.220703125 468.040039062 70.30078125 470.759765625 c 5
 68.9404296875 469.319335938 67.740234375 468.080078125 66.7001953125 467.040039062 c 132
 65.66015625 466 64.6005859375 465 63.5205078125 464.040039062 c 132
 62.4404296875 463.080078125 61.30078125 462.059570312 60.1005859375 460.979492188 c 132
 58.900390625 459.899414062 57.4609375 458.639648438 55.7802734375 457.19921875 c 6
 38.0205078125 442.6796875 l 5
 26.5 457.439453125 l 5
 72.4609375 493.319335938 l 5
 90.4609375 493.319335938 l 5
 90.4609375 317.879882812 l 5
EndSplineSet
Validated: 524289
EndChar

StartChar: zero
Encoding: 48 48 1
Width: 150
VWidth: 2048
Flags: HW
LayerCount: 2
Fore
SplineSet
132 403.559570312 m 4
 132 389.400390625 130.979492188 376.719726562 128.940429688 365.51953125 c 4
 126.900390625 354.3203125 123.620117188 344.83984375 119.099609375 337.080078125 c 4
 114.580078125 329.3203125 108.759765625 323.400390625 101.639648438 319.3203125 c 4
 94.51953125 315.240234375 85.8798828125 313.200195312 75.7197265625 313.200195312 c 4
 66.2802734375 313.200195312 58.0595703125 315.240234375 51.0595703125 319.3203125 c 4
 44.0595703125 323.400390625 38.259765625 329.3203125 33.66015625 337.080078125 c 4
 29.0595703125 344.83984375 25.6201171875 354.3203125 23.33984375 365.51953125 c 4
 21.0595703125 376.719726562 19.919921875 389.400390625 19.919921875 403.559570312 c 260
 19.919921875 417.719726562 20.9404296875 430.400390625 22.9794921875 441.599609375 c 4
 25.01953125 452.799804688 28.259765625 462.259765625 32.7001953125 469.98046875 c 4
 37.1396484375 477.700195312 42.900390625 483.599609375 49.9794921875 487.6796875 c 4
 57.0595703125 491.759765625 65.6396484375 493.799804688 75.7197265625 493.799804688 c 4
 85.240234375 493.799804688 93.51953125 491.780273438 100.559570312 487.740234375 c 4
 107.599609375 483.700195312 113.440429688 477.8203125 118.080078125 470.099609375 c 4
 122.719726562 462.379882812 126.200195312 452.919921875 128.51953125 441.719726562 c 4
 130.83984375 430.51953125 132 417.799804688 132 403.559570312 c 4
42.1201171875 403.559570312 m 260
 42.1201171875 391.559570312 42.7197265625 381.080078125 43.919921875 372.120117188 c 4
 45.1201171875 363.16015625 47.0400390625 355.700195312 49.6796875 349.740234375 c 4
 52.3203125 343.780273438 55.7802734375 339.299804688 60.0595703125 336.299804688 c 4
 64.33984375 333.299804688 69.5595703125 331.799804688 75.7197265625 331.799804688 c 260
 81.8798828125 331.799804688 87.1201171875 333.280273438 91.4404296875 336.240234375 c 4
 95.759765625 339.200195312 99.2998046875 343.639648438 102.059570312 349.559570312 c 4
 104.8203125 355.48046875 106.8203125 362.940429688 108.059570312 371.940429688 c 4
 109.299804688 380.940429688 109.919921875 391.48046875 109.919921875 403.559570312 c 4
 109.919921875 415.559570312 109.299804688 426.040039062 108.059570312 435 c 4
 106.8203125 443.959960938 104.8203125 451.400390625 102.059570312 457.3203125 c 4
 99.2998046875 463.240234375 95.759765625 467.6796875 91.4404296875 470.639648438 c 4
 87.1201171875 473.599609375 81.8798828125 475.080078125 75.7197265625 475.080078125 c 260
 69.5595703125 475.080078125 64.33984375 473.599609375 60.0595703125 470.639648438 c 4
 55.7802734375 467.6796875 52.3203125 463.240234375 49.6796875 457.3203125 c 4
 47.0400390625 451.400390625 45.1201171875 443.959960938 43.919921875 435 c 4
 42.7197265625 426.040039062 42.1201171875 415.559570312 42.1201171875 403.559570312 c 260
EndSplineSet
Validated: 524289
EndChar

StartChar: two
Encoding: 50 50 2
Width: 150
VWidth: 2048
Flags: HW
LayerCount: 2
Fore
SplineSet
129.719726562 316.919921875 m 5
 20.2802734375 316.919921875 l 5
 20.2802734375 335.640625 l 5
 62.2802734375 381.360351562 l 6
 68.2802734375 387.840820312 73.6396484375 393.760742188 78.3603515625 399.120117188 c 132
 83.080078125 404.48046875 87.099609375 409.720703125 90.419921875 414.840820312 c 132
 93.740234375 419.959960938 96.2802734375 425.100585938 98.0400390625 430.260742188 c 132
 99.7998046875 435.419921875 100.6796875 441.040039062 100.6796875 447.120117188 c 4
 100.6796875 451.840820312 100 456 98.6396484375 459.600585938 c 132
 97.2802734375 463.200195312 95.33984375 466.260742188 92.8203125 468.780273438 c 132
 90.2998046875 471.30078125 87.3203125 473.200195312 83.8798828125 474.48046875 c 132
 80.4404296875 475.760742188 76.599609375 476.400390625 72.3603515625 476.400390625 c 4
 64.759765625 476.400390625 57.900390625 474.860351562 51.7802734375 471.780273438 c 132
 45.66015625 468.700195312 39.83984375 464.760742188 34.3203125 459.959960938 c 5
 22.080078125 474.240234375 l 5
 25.2802734375 477.120117188 28.7197265625 479.8203125 32.400390625 482.340820312 c 132
 36.080078125 484.860351562 40.0400390625 487.040039062 44.2802734375 488.880859375 c 132
 48.51953125 490.720703125 53 492.180664062 57.7197265625 493.260742188 c 132
 62.4404296875 494.340820312 67.400390625 494.880859375 72.599609375 494.880859375 c 4
 80.2802734375 494.880859375 87.2197265625 493.80078125 93.419921875 491.640625 c 132
 99.6201171875 489.48046875 104.879882812 486.380859375 109.200195312 482.340820312 c 132
 113.51953125 478.30078125 116.860351562 473.380859375 119.219726562 467.580078125 c 132
 121.580078125 461.780273438 122.759765625 455.240234375 122.759765625 447.959960938 c 4
 122.759765625 441.16015625 121.700195312 434.680664062 119.580078125 428.520507812 c 132
 117.459960938 422.360351562 114.540039062 416.30078125 110.8203125 410.340820312 c 132
 107.099609375 404.380859375 102.66015625 398.400390625 97.5 392.400390625 c 132
 92.33984375 386.400390625 86.759765625 380.16015625 80.759765625 373.680664062 c 6
 47.0400390625 337.80078125 l 5
 47.0400390625 336.840820312 l 5
 129.719726562 336.840820312 l 5
 129.719726562 316.919921875 l 5
EndSplineSet
Validated: 524289
EndChar

StartChar: three
Encoding: 51 51 3
Width: 150
VWidth: 2048
Flags: HW
LayerCount: 2
Fore
SplineSet
119.040039062 448.520507812 m 4
 119.040039062 442.680664062 118.120117188 437.360351562 116.280273438 432.560546875 c 132
 114.440429688 427.760742188 111.860351562 423.600585938 108.540039062 420.080078125 c 132
 105.219726562 416.560546875 101.240234375 413.66015625 96.599609375 411.380859375 c 132
 91.9599609375 409.100585938 86.7998046875 407.48046875 81.1201171875 406.520507812 c 5
 81.1201171875 405.80078125 l 5
 95.2802734375 404.040039062 106.040039062 399.540039062 113.400390625 392.30078125 c 132
 120.759765625 385.060546875 124.440429688 375.640625 124.440429688 364.040039062 c 4
 124.440429688 356.360351562 123.139648438 349.3203125 120.540039062 342.919921875 c 132
 117.940429688 336.520507812 114 331 108.719726562 326.360351562 c 132
 103.440429688 321.720703125 96.759765625 318.120117188 88.6796875 315.560546875 c 132
 80.599609375 313 71.0400390625 311.720703125 60 311.720703125 c 4
 51.2802734375 311.720703125 43.0595703125 312.400390625 35.33984375 313.760742188 c 132
 27.6201171875 315.120117188 20.3603515625 317.600585938 13.5595703125 321.200195312 c 5
 13.5595703125 341.600585938 l 5
 20.51953125 337.919921875 28.0595703125 335.080078125 36.1796875 333.080078125 c 132
 44.2998046875 331.080078125 52.080078125 330.080078125 59.51953125 330.080078125 c 4
 66.8798828125 330.080078125 73.240234375 330.880859375 78.599609375 332.48046875 c 132
 83.9599609375 334.080078125 88.3798828125 336.360351562 91.8603515625 339.3203125 c 132
 95.33984375 342.280273438 97.900390625 345.919921875 99.5400390625 350.240234375 c 132
 101.1796875 354.560546875 102 359.400390625 102 364.760742188 c 4
 102 370.200195312 100.940429688 374.860351562 98.8203125 378.740234375 c 132
 96.7001953125 382.620117188 93.6796875 385.8203125 89.759765625 388.340820312 c 132
 85.83984375 390.860351562 81.0595703125 392.720703125 75.419921875 393.919921875 c 132
 69.7802734375 395.120117188 63.400390625 395.720703125 56.2802734375 395.720703125 c 6
 40.3203125 395.720703125 l 5
 40.3203125 413.840820312 l 5
 56.2802734375 413.840820312 l 6
 62.759765625 413.840820312 68.51953125 414.640625 73.5595703125 416.240234375 c 132
 78.599609375 417.840820312 82.8203125 420.120117188 86.2197265625 423.080078125 c 132
 89.6201171875 426.040039062 92.2001953125 429.560546875 93.9599609375 433.640625 c 132
 95.7197265625 437.720703125 96.599609375 442.200195312 96.599609375 447.080078125 c 4
 96.599609375 451.240234375 95.8798828125 454.959960938 94.4404296875 458.240234375 c 132
 93 461.520507812 90.9599609375 464.30078125 88.3203125 466.580078125 c 132
 85.6796875 468.860351562 82.51953125 470.600585938 78.83984375 471.80078125 c 132
 75.16015625 473 71.080078125 473.600585938 66.599609375 473.600585938 c 4
 58.0400390625 473.600585938 50.5 472.260742188 43.98046875 469.580078125 c 132
 37.4599609375 466.900390625 31.240234375 463.400390625 25.3203125 459.080078125 c 5
 14.2802734375 474.080078125 l 5
 17.3203125 476.560546875 20.7001953125 478.880859375 24.419921875 481.040039062 c 132
 28.1396484375 483.200195312 32.2001953125 485.100585938 36.599609375 486.740234375 c 132
 41 488.380859375 45.7001953125 489.680664062 50.7001953125 490.640625 c 132
 55.7001953125 491.600585938 61 492.080078125 66.599609375 492.080078125 c 4
 75.240234375 492.080078125 82.8203125 491 89.33984375 488.840820312 c 132
 95.8603515625 486.680664062 101.3203125 483.66015625 105.719726562 479.780273438 c 132
 110.120117188 475.900390625 113.440429688 471.30078125 115.6796875 465.98046875 c 132
 117.919921875 460.66015625 119.040039062 454.840820312 119.040039062 448.520507812 c 4
EndSplineSet
Validated: 524289
EndChar

StartChar: colon
Encoding: 58 58 4
Width: 150
VWidth: 2048
Flags: HW
LayerCount: 2
Fore
SplineSet
59.259765625 354.799804688 m 4
 59.259765625 357.83984375 59.66015625 360.419921875 60.4599609375 362.540039062 c 132
 61.259765625 364.66015625 62.33984375 366.379882812 63.7001953125 367.700195312 c 132
 65.0595703125 369.01953125 66.66015625 369.979492188 68.5 370.580078125 c 132
 70.33984375 371.1796875 72.33984375 371.479492188 74.5 371.479492188 c 4
 76.580078125 371.479492188 78.5595703125 371.1796875 80.4404296875 370.580078125 c 132
 82.3203125 369.979492188 83.9404296875 369.01953125 85.2998046875 367.700195312 c 132
 86.66015625 366.379882812 87.740234375 364.66015625 88.5400390625 362.540039062 c 132
 89.33984375 360.419921875 89.740234375 357.83984375 89.740234375 354.799804688 c 4
 89.740234375 351.83984375 89.33984375 349.299804688 88.5400390625 347.1796875 c 132
 87.740234375 345.059570312 86.66015625 343.319335938 85.2998046875 341.959960938 c 132
 83.9404296875 340.599609375 82.3203125 339.599609375 80.4404296875 338.959960938 c 132
 78.5595703125 338.319335938 76.580078125 338 74.5 338 c 4
 72.33984375 338 70.33984375 338.319335938 68.5 338.959960938 c 132
 66.66015625 339.599609375 65.0595703125 340.599609375 63.7001953125 341.959960938 c 132
 62.33984375 343.319335938 61.259765625 345.059570312 60.4599609375 347.1796875 c 132
 59.66015625 349.299804688 59.259765625 351.83984375 59.259765625 354.799804688 c 4
59.259765625 459.919921875 m 4
 59.259765625 463.040039062 59.66015625 465.66015625 60.4599609375 467.780273438 c 132
 61.259765625 469.899414062 62.33984375 471.620117188 63.7001953125 472.939453125 c 132
 65.0595703125 474.259765625 66.66015625 475.200195312 68.5 475.759765625 c 132
 70.33984375 476.319335938 72.33984375 476.599609375 74.5 476.599609375 c 4
 76.580078125 476.599609375 78.5595703125 476.319335938 80.4404296875 475.759765625 c 132
 82.3203125 475.200195312 83.9404296875 474.259765625 85.2998046875 472.939453125 c 132
 86.66015625 471.620117188 87.740234375 469.899414062 88.5400390625 467.780273438 c 132
 89.33984375 465.66015625 89.740234375 463.040039062 89.740234375 459.919921875 c 4
 89.740234375 456.959960938 89.33984375 454.439453125 88.5400390625 452.359375 c 132
 87.740234375 450.280273438 86.66015625 448.559570312 85.2998046875 447.200195312 c 132
 83.9404296875 445.83984375 82.3203125 444.83984375 80.4404296875 444.200195312 c 132
 78.5595703125 443.559570312 76.580078125 443.240234375 74.5 443.240234375 c 4
 72.33984375 443.240234375 70.33984375 443.559570312 68.5 444.200195312 c 132
 66.66015625 444.83984375 65.0595703125 445.83984375 63.7001953125 447.200195312 c 132
 62.33984375 448.559570312 61.259765625 450.280273438 60.4599609375 452.359375 c 132
 59.66015625 454.439453125 59.259765625 456.959960938 59.259765625 459.919921875 c 4
EndSplineSet
Validated: 1
EndChar

StartChar: four
Encoding: 52 52 5
Width: 150
VWidth: 2048
Flags: HW
LayerCount: 2
Fore
SplineSet
138.83984375 353.16015625 m 5
 113.280273438 353.16015625 l 5
 113.280273438 313.799804688 l 5
 92.16015625 313.799804688 l 5
 92.16015625 353.16015625 l 5
 11.16015625 353.16015625 l 5
 11.16015625 372.240234375 l 5
 90.7197265625 490.200195312 l 5
 113.280273438 490.200195312 l 5
 113.280273438 373.080078125 l 5
 138.83984375 373.080078125 l 5
 138.83984375 353.16015625 l 5
92.16015625 373.080078125 m 5
 92.16015625 415.799804688 l 6
 92.16015625 420.280273438 92.2197265625 424.98046875 92.33984375 429.900390625 c 132
 92.4599609375 434.8203125 92.599609375 439.620117188 92.759765625 444.299804688 c 132
 92.919921875 448.98046875 93.099609375 453.360351562 93.2998046875 457.440429688 c 132
 93.5 461.51953125 93.6396484375 464.919921875 93.7197265625 467.639648438 c 5
 92.6396484375 467.639648438 l 5
 92.080078125 466.040039062 91.3798828125 464.259765625 90.5400390625 462.299804688 c 132
 89.7001953125 460.33984375 88.7802734375 458.379882812 87.7802734375 456.419921875 c 132
 86.7802734375 454.459960938 85.759765625 452.559570312 84.7197265625 450.719726562 c 132
 83.6796875 448.879882812 82.7197265625 447.3203125 81.83984375 446.040039062 c 6
 32.51953125 373.080078125 l 5
 92.16015625 373.080078125 l 5
EndSplineSet
Validated: 524289
EndChar

StartChar: five
Encoding: 53 53 6
Width: 150
VWidth: 2048
Flags: HW
LayerCount: 2
Fore
SplineSet
80.2001953125 421.3203125 m 4
 88.1201171875 421.3203125 95.5 420.219726562 102.33984375 418.020507812 c 132
 109.1796875 415.8203125 115.139648438 412.560546875 120.219726562 408.240234375 c 132
 125.299804688 403.919921875 129.280273438 398.560546875 132.16015625 392.16015625 c 132
 135.040039062 385.759765625 136.48046875 378.360351562 136.48046875 369.959960938 c 4
 136.48046875 360.83984375 135.120117188 352.640625 132.400390625 345.360351562 c 132
 129.6796875 338.080078125 125.639648438 331.919921875 120.280273438 326.879882812 c 132
 114.919921875 321.83984375 108.299804688 317.98046875 100.419921875 315.299804688 c 132
 92.5400390625 312.620117188 83.48046875 311.280273438 73.240234375 311.280273438 c 4
 69.16015625 311.280273438 65.1396484375 311.48046875 61.1796875 311.879882812 c 132
 57.2197265625 312.280273438 53.419921875 312.860351562 49.7802734375 313.620117188 c 132
 46.1396484375 314.379882812 42.6796875 315.360351562 39.400390625 316.560546875 c 132
 36.1201171875 317.759765625 33.16015625 319.16015625 30.51953125 320.759765625 c 5
 30.51953125 341.400390625 l 5
 33.16015625 339.560546875 36.259765625 337.919921875 39.8203125 336.48046875 c 132
 43.3798828125 335.040039062 47.1201171875 333.83984375 51.0400390625 332.879882812 c 132
 54.9599609375 331.919921875 58.900390625 331.180664062 62.8603515625 330.66015625 c 132
 66.8203125 330.140625 70.48046875 329.879882812 73.83984375 329.879882812 c 4
 80.16015625 329.879882812 85.7998046875 330.620117188 90.759765625 332.100585938 c 132
 95.7197265625 333.580078125 99.919921875 335.879882812 103.360351562 339 c 132
 106.799804688 342.120117188 109.440429688 346.040039062 111.280273438 350.759765625 c 132
 113.120117188 355.48046875 114.040039062 361.080078125 114.040039062 367.560546875 c 4
 114.040039062 379 110.51953125 387.740234375 103.48046875 393.780273438 c 132
 96.4404296875 399.8203125 86.2001953125 402.83984375 72.759765625 402.83984375 c 4
 70.599609375 402.83984375 68.259765625 402.740234375 65.740234375 402.540039062 c 132
 63.2197265625 402.33984375 60.7001953125 402.080078125 58.1796875 401.759765625 c 132
 55.66015625 401.440429688 53.259765625 401.100585938 50.98046875 400.740234375 c 132
 48.7001953125 400.379882812 46.7197265625 400.040039062 45.0400390625 399.719726562 c 5
 34.240234375 406.560546875 l 5
 40.83984375 489.120117188 l 5
 123.639648438 489.120117188 l 5
 123.639648438 469.200195312 l 5
 59.7998046875 469.200195312 l 5
 55.1201171875 418.919921875 l 5
 57.6796875 419.400390625 61.0595703125 419.919921875 65.259765625 420.48046875 c 132
 69.4599609375 421.040039062 74.4404296875 421.3203125 80.2001953125 421.3203125 c 4
EndSplineSet
Validated: 524289
EndChar

StartChar: six
Encoding: 54 54 7
Width: 150
VWidth: 2048
Flags: HW
LayerCount: 2
Fore
SplineSet
29.240234375 391.120117188 m 4
 29.240234375 399.520507812 29.66015625 407.880859375 30.5 416.200195312 c 132
 31.33984375 424.520507812 32.8203125 432.5 34.9404296875 440.140625 c 132
 37.0595703125 447.780273438 39.9599609375 454.880859375 43.6396484375 461.440429688 c 132
 47.3203125 468 52 473.700195312 57.6796875 478.540039062 c 132
 63.3603515625 483.380859375 70.16015625 487.180664062 78.080078125 489.940429688 c 132
 86 492.700195312 95.2802734375 494.080078125 105.919921875 494.080078125 c 4
 107.440429688 494.080078125 109.120117188 494.040039062 110.959960938 493.959960938 c 132
 112.799804688 493.880859375 114.66015625 493.740234375 116.540039062 493.540039062 c 132
 118.419921875 493.340820312 120.219726562 493.100585938 121.940429688 492.8203125 c 132
 123.66015625 492.540039062 125.200195312 492.200195312 126.559570312 491.80078125 c 5
 126.559570312 473.200195312 l 5
 123.759765625 474.16015625 120.599609375 474.880859375 117.080078125 475.360351562 c 132
 113.559570312 475.840820312 110.080078125 476.080078125 106.639648438 476.080078125 c 4
 99.4404296875 476.080078125 93.099609375 475.220703125 87.6201171875 473.5 c 132
 82.1396484375 471.780273438 77.400390625 469.360351562 73.400390625 466.240234375 c 132
 69.400390625 463.120117188 66.0595703125 459.400390625 63.3798828125 455.080078125 c 132
 60.7001953125 450.760742188 58.51953125 445.98046875 56.83984375 440.740234375 c 132
 55.16015625 435.5 53.919921875 429.919921875 53.1201171875 424 c 132
 52.3203125 418.080078125 51.7998046875 411.919921875 51.5595703125 405.520507812 c 5
 53 405.520507812 l 5
 54.599609375 408.400390625 56.5400390625 411.100585938 58.8203125 413.620117188 c 132
 61.099609375 416.140625 63.759765625 418.30078125 66.7998046875 420.100585938 c 132
 69.83984375 421.900390625 73.259765625 423.3203125 77.0595703125 424.360351562 c 132
 80.8603515625 425.400390625 85.1201171875 425.919921875 89.83984375 425.919921875 c 4
 97.4404296875 425.919921875 104.3203125 424.740234375 110.48046875 422.380859375 c 132
 116.639648438 420.020507812 121.879882812 416.560546875 126.200195312 412 c 132
 130.51953125 407.440429688 133.860351562 401.860351562 136.219726562 395.260742188 c 132
 138.580078125 388.66015625 139.759765625 381.120117188 139.759765625 372.640625 c 4
 139.759765625 363.520507812 138.51953125 355.3203125 136.040039062 348.040039062 c 132
 133.559570312 340.760742188 130 334.580078125 125.360351562 329.5 c 132
 120.719726562 324.419921875 115.120117188 320.520507812 108.559570312 317.80078125 c 132
 102 315.080078125 94.6396484375 313.720703125 86.48046875 313.720703125 c 4
 78.48046875 313.720703125 70.98046875 315.280273438 63.98046875 318.400390625 c 132
 56.98046875 321.520507812 50.919921875 326.280273438 45.7998046875 332.680664062 c 132
 40.6796875 339.080078125 36.6396484375 347.120117188 33.6796875 356.80078125 c 132
 30.7197265625 366.48046875 29.240234375 377.919921875 29.240234375 391.120117188 c 4
86.240234375 332.080078125 m 4
 91.0400390625 332.080078125 95.419921875 332.900390625 99.3798828125 334.540039062 c 132
 103.33984375 336.180664062 106.759765625 338.66015625 109.639648438 341.98046875 c 132
 112.51953125 345.30078125 114.740234375 349.5 116.299804688 354.580078125 c 132
 117.860351562 359.66015625 118.639648438 365.680664062 118.639648438 372.640625 c 4
 118.639648438 378.240234375 117.98046875 383.260742188 116.66015625 387.700195312 c 132
 115.33984375 392.140625 113.360351562 395.919921875 110.719726562 399.040039062 c 132
 108.080078125 402.16015625 104.780273438 404.560546875 100.8203125 406.240234375 c 132
 96.8603515625 407.919921875 92.240234375 408.760742188 86.9599609375 408.760742188 c 4
 81.599609375 408.760742188 76.7001953125 407.8203125 72.259765625 405.940429688 c 132
 67.8203125 404.060546875 64.0400390625 401.620117188 60.919921875 398.620117188 c 132
 57.7998046875 395.620117188 55.3798828125 392.200195312 53.66015625 388.360351562 c 132
 51.9404296875 384.520507812 51.080078125 380.680664062 51.080078125 376.840820312 c 4
 51.080078125 371.48046875 51.8203125 366.140625 53.2998046875 360.8203125 c 132
 54.7802734375 355.5 56.98046875 350.720703125 59.900390625 346.48046875 c 132
 62.8203125 342.240234375 66.48046875 338.780273438 70.8798828125 336.100585938 c 132
 75.2802734375 333.419921875 80.400390625 332.080078125 86.240234375 332.080078125 c 4
EndSplineSet
Validated: 524289
EndChar

StartChar: seven
Encoding: 55 55 8
Width: 150
VWidth: 2048
Flags: HW
LayerCount: 2
Fore
SplineSet
43.51953125 314.879882812 m 5
 111.080078125 470.399414062 l 5
 20.599609375 470.399414062 l 5
 20.599609375 490.319335938 l 5
 133.400390625 490.319335938 l 5
 133.400390625 472.919921875 l 5
 66.7998046875 314.879882812 l 5
 43.51953125 314.879882812 l 5
EndSplineSet
Validated: 524289
EndChar

StartChar: eight
Encoding: 56 56 9
Width: 150
VWidth: 2048
Flags: HW
LayerCount: 2
Fore
SplineSet
76 493 m 4
 82.7197265625 493 89.0595703125 492.120117188 95.01953125 490.360351562 c 132
 100.98046875 488.600585938 106.219726562 485.959960938 110.740234375 482.440429688 c 132
 115.259765625 478.919921875 118.83984375 474.520507812 121.48046875 469.240234375 c 132
 124.120117188 463.959960938 125.440429688 457.799804688 125.440429688 450.759765625 c 4
 125.440429688 445.400390625 124.639648438 440.560546875 123.040039062 436.240234375 c 132
 121.440429688 431.919921875 119.240234375 428.020507812 116.440429688 424.540039062 c 132
 113.639648438 421.060546875 110.3203125 417.940429688 106.48046875 415.180664062 c 132
 102.639648438 412.419921875 98.48046875 409.919921875 94 407.680664062 c 5
 98.6396484375 405.200195312 103.1796875 402.440429688 107.620117188 399.400390625 c 132
 112.059570312 396.360351562 116.01953125 392.940429688 119.5 389.140625 c 132
 122.98046875 385.33984375 125.780273438 381.080078125 127.900390625 376.360351562 c 132
 130.01953125 371.640625 131.080078125 366.360351562 131.080078125 360.520507812 c 4
 131.080078125 353.16015625 129.740234375 346.5 127.059570312 340.540039062 c 132
 124.379882812 334.580078125 120.620117188 329.520507812 115.780273438 325.360351562 c 132
 110.940429688 321.200195312 105.139648438 318 98.3798828125 315.759765625 c 132
 91.6201171875 313.520507812 84.16015625 312.400390625 76 312.400390625 c 4
 67.2001953125 312.400390625 59.3798828125 313.48046875 52.5400390625 315.640625 c 132
 45.7001953125 317.799804688 39.9404296875 320.900390625 35.259765625 324.940429688 c 132
 30.580078125 328.98046875 27.01953125 333.919921875 24.580078125 339.759765625 c 132
 22.1396484375 345.600585938 20.919921875 352.200195312 20.919921875 359.560546875 c 4
 20.919921875 365.560546875 21.8203125 370.959960938 23.6201171875 375.759765625 c 132
 25.419921875 380.560546875 27.83984375 384.879882812 30.8798828125 388.719726562 c 132
 33.919921875 392.560546875 37.51953125 395.959960938 41.6796875 398.919921875 c 132
 45.83984375 401.879882812 50.240234375 404.48046875 54.8798828125 406.719726562 c 5
 50.9599609375 409.200195312 47.2802734375 411.900390625 43.83984375 414.8203125 c 132
 40.400390625 417.740234375 37.419921875 421 34.900390625 424.600585938 c 132
 32.3798828125 428.200195312 30.3798828125 432.180664062 28.900390625 436.540039062 c 132
 27.419921875 440.900390625 26.6796875 445.719726562 26.6796875 451 c 4
 26.6796875 457.959960938 28.01953125 464.060546875 30.7001953125 469.299804688 c 132
 33.3798828125 474.540039062 37 478.919921875 41.5595703125 482.440429688 c 132
 46.1201171875 485.959960938 51.3798828125 488.600585938 57.33984375 490.360351562 c 132
 63.2998046875 492.120117188 69.51953125 493 76 493 c 4
42.400390625 359.3203125 m 4
 42.400390625 355.080078125 43.0400390625 351.180664062 44.3203125 347.620117188 c 132
 45.599609375 344.060546875 47.599609375 341.020507812 50.3203125 338.5 c 132
 53.0400390625 335.98046875 56.48046875 334.020507812 60.6396484375 332.620117188 c 132
 64.7998046875 331.219726562 69.759765625 330.520507812 75.51953125 330.520507812 c 4
 81.1201171875 330.520507812 86.0595703125 331.219726562 90.33984375 332.620117188 c 132
 94.6201171875 334.020507812 98.2001953125 336.020507812 101.080078125 338.620117188 c 132
 103.959960938 341.219726562 106.120117188 344.360351562 107.559570312 348.040039062 c 132
 109 351.719726562 109.719726562 355.799804688 109.719726562 360.280273438 c 4
 109.719726562 364.440429688 108.940429688 368.200195312 107.379882812 371.560546875 c 132
 105.8203125 374.919921875 103.580078125 378.040039062 100.66015625 380.919921875 c 132
 97.740234375 383.799804688 94.240234375 386.520507812 90.16015625 389.080078125 c 132
 86.080078125 391.640625 81.51953125 394.16015625 76.48046875 396.640625 c 6
 72.8798828125 398.3203125 l 5
 62.7998046875 393.520507812 55.2001953125 388.020507812 50.080078125 381.8203125 c 132
 44.9599609375 375.620117188 42.400390625 368.120117188 42.400390625 359.3203125 c 4
75.759765625 474.759765625 m 4
 67.2802734375 474.759765625 60.5400390625 472.640625 55.5400390625 468.400390625 c 132
 50.5400390625 464.16015625 48.0400390625 458 48.0400390625 449.919921875 c 4
 48.0400390625 445.360351562 48.740234375 441.440429688 50.1396484375 438.16015625 c 132
 51.5400390625 434.879882812 53.48046875 431.959960938 55.9599609375 429.400390625 c 132
 58.4404296875 426.83984375 61.419921875 424.540039062 64.900390625 422.5 c 132
 68.3798828125 420.459960938 72.16015625 418.48046875 76.240234375 416.560546875 c 5
 80.080078125 418.3203125 83.7001953125 420.240234375 87.099609375 422.3203125 c 132
 90.5 424.400390625 93.4599609375 426.759765625 95.98046875 429.400390625 c 132
 98.5 432.040039062 100.48046875 435.040039062 101.919921875 438.400390625 c 132
 103.360351562 441.759765625 104.080078125 445.600585938 104.080078125 449.919921875 c 4
 104.080078125 458 101.559570312 464.16015625 96.51953125 468.400390625 c 132
 91.48046875 472.640625 84.5595703125 474.759765625 75.759765625 474.759765625 c 4
EndSplineSet
Validated: 524289
EndChar

StartChar: nine
Encoding: 57 57 10
Width: 150
VWidth: 2048
Flags: HW
LayerCount: 2
Fore
SplineSet
133.3203125 417.879882812 m 4
 133.3203125 409.479492188 132.900390625 401.099609375 132.059570312 392.739257812 c 132
 131.219726562 384.379882812 129.740234375 376.399414062 127.620117188 368.799804688 c 132
 125.5 361.19921875 122.599609375 354.099609375 118.919921875 347.5 c 132
 115.240234375 340.899414062 110.559570312 335.19921875 104.879882812 330.399414062 c 132
 99.2001953125 325.599609375 92.400390625 321.819335938 84.48046875 319.059570312 c 132
 76.5595703125 316.299804688 67.2802734375 314.919921875 56.6396484375 314.919921875 c 4
 55.1201171875 314.919921875 53.4404296875 314.959960938 51.599609375 315.040039062 c 132
 49.759765625 315.119140625 47.919921875 315.259765625 46.080078125 315.459960938 c 132
 44.240234375 315.659179688 42.4404296875 315.879882812 40.6796875 316.119140625 c 132
 38.919921875 316.359375 37.3603515625 316.6796875 36 317.080078125 c 5
 36 335.799804688 l 5
 38.7998046875 334.759765625 41.9599609375 334 45.48046875 333.51953125 c 132
 49 333.040039062 52.48046875 332.799804688 55.919921875 332.799804688 c 4
 66.7197265625 332.799804688 75.599609375 334.6796875 82.5595703125 338.439453125 c 132
 89.51953125 342.19921875 95.0400390625 347.299804688 99.1201171875 353.739257812 c 132
 103.200195312 360.1796875 106.099609375 367.6796875 107.8203125 376.239257812 c 132
 109.540039062 384.799804688 110.599609375 393.83984375 111 403.359375 c 5
 109.440429688 403.359375 l 5
 107.83984375 400.479492188 105.919921875 397.799804688 103.6796875 395.319335938 c 132
 101.440429688 392.83984375 98.7998046875 390.6796875 95.759765625 388.83984375 c 132
 92.7197265625 387 89.2802734375 385.559570312 85.4404296875 384.51953125 c 132
 81.599609375 383.479492188 77.3203125 382.959960938 72.599609375 382.959960938 c 4
 65 382.959960938 58.1201171875 384.139648438 51.9599609375 386.5 c 132
 45.7998046875 388.859375 40.5595703125 392.319335938 36.240234375 396.879882812 c 132
 31.919921875 401.439453125 28.580078125 407.01953125 26.2197265625 413.619140625 c 132
 23.8603515625 420.219726562 22.6796875 427.759765625 22.6796875 436.239257812 c 4
 22.6796875 445.359375 23.9404296875 453.580078125 26.4599609375 460.899414062 c 132
 28.98046875 468.219726562 32.5400390625 474.419921875 37.1396484375 479.5 c 132
 41.740234375 484.580078125 47.33984375 488.479492188 53.9404296875 491.19921875 c 132
 60.5400390625 493.919921875 67.919921875 495.279296875 76.080078125 495.279296875 c 4
 84.16015625 495.279296875 91.6796875 493.719726562 98.6396484375 490.599609375 c 132
 105.599609375 487.479492188 111.639648438 482.719726562 116.759765625 476.319335938 c 132
 121.879882812 469.919921875 125.919921875 461.859375 128.879882812 452.139648438 c 132
 131.83984375 442.419921875 133.3203125 431 133.3203125 417.879882812 c 4
76.3203125 476.799804688 m 4
 71.51953125 476.799804688 67.1396484375 476 63.1796875 474.399414062 c 132
 59.2197265625 472.799804688 55.7998046875 470.319335938 52.919921875 466.959960938 c 132
 50.0400390625 463.599609375 47.8203125 459.379882812 46.259765625 454.299804688 c 132
 44.7001953125 449.219726562 43.919921875 443.19921875 43.919921875 436.239257812 c 4
 43.919921875 430.639648438 44.580078125 425.619140625 45.900390625 421.1796875 c 132
 47.2197265625 416.739257812 49.2001953125 412.959960938 51.83984375 409.83984375 c 132
 54.48046875 406.719726562 57.7802734375 404.319335938 61.740234375 402.639648438 c 132
 65.7001953125 400.959960938 70.3203125 400.119140625 75.599609375 400.119140625 c 4
 81.0400390625 400.119140625 85.9599609375 401.059570312 90.3603515625 402.939453125 c 132
 94.759765625 404.819335938 98.51953125 407.259765625 101.639648438 410.259765625 c 132
 104.759765625 413.259765625 107.1796875 416.6796875 108.900390625 420.51953125 c 132
 110.620117188 424.359375 111.48046875 428.19921875 111.48046875 432.040039062 c 4
 111.48046875 437.399414062 110.740234375 442.739257812 109.259765625 448.059570312 c 132
 107.780273438 453.379882812 105.580078125 458.1796875 102.66015625 462.459960938 c 132
 99.740234375 466.739257812 96.080078125 470.19921875 91.6796875 472.83984375 c 132
 87.2802734375 475.479492188 82.16015625 476.799804688 76.3203125 476.799804688 c 4
EndSplineSet
Validated: 524289
EndChar

StartChar: s
Encoding: 115 115 11
Width: 150
VWidth: 2048
Flags: HW
LayerCount: 2
Fore
SplineSet
108.360351562 351.83984375 m 4
 108.360351562 345.439453125 107.200195312 339.83984375 104.880859375 335.040039062 c 132
 102.560546875 330.239257812 99.220703125 326.219726562 94.8603515625 322.979492188 c 132
 90.5 319.739257812 85.240234375 317.319335938 79.080078125 315.719726562 c 132
 72.919921875 314.119140625 68.80078125 313.319335938 61.1201171875 313.319335938 c 4
 52.400390625 313.319335938 42.1201171875 314.01953125 35.880859375 315.419921875 c 132
 29.640625 316.819335938 24.16015625 318.879882812 19.4404296875 321.599609375 c 5
 19.4404296875 341.51953125 l 5
 21.919921875 340.239257812 24.6806640625 338.979492188 27.720703125 337.739257812 c 132
 30.7607421875 336.5 33.9599609375 335.399414062 37.3203125 334.439453125 c 132
 40.6806640625 333.479492188 44.140625 332.69921875 47.7001953125 332.099609375 c 132
 51.2607421875 331.5 54.80078125 331.19921875 58.3203125 331.19921875 c 4
 63.5205078125 331.19921875 67.9404296875 331.639648438 71.580078125 332.51953125 c 132
 75.220703125 333.399414062 78.1806640625 334.659179688 80.4599609375 336.299804688 c 132
 82.740234375 337.939453125 84.400390625 339.939453125 85.4404296875 342.299804688 c 132
 86.48046875 344.659179688 87 347.279296875 87 350.159179688 c 4
 87 352.639648438 86.6005859375 354.879882812 85.80078125 356.879882812 c 132
 85 358.879882812 83.5400390625 360.859375 81.419921875 362.819335938 c 132
 79.30078125 364.779296875 76.400390625 366.759765625 72.720703125 368.759765625 c 132
 69.0400390625 370.759765625 64.3203125 373 58.560546875 375.479492188 c 260
 52.80078125 377.959960938 47.6201171875 380.399414062 43.0205078125 382.799804688 c 132
 38.419921875 385.19921875 34.5205078125 387.879882812 31.3203125 390.83984375 c 132
 28.1201171875 393.799804688 25.66015625 397.219726562 23.9404296875 401.099609375 c 132
 22.220703125 404.979492188 21.3603515625 409.599609375 21.3603515625 414.959960938 c 4
 21.3603515625 420.559570312 22.4599609375 425.540039062 24.66015625 429.899414062 c 132
 26.8603515625 434.259765625 29.9599609375 437.919921875 33.9599609375 440.879882812 c 132
 37.9599609375 443.83984375 42.7607421875 446.080078125 48.3603515625 447.599609375 c 132
 53.9599609375 449.119140625 60.2001953125 449.879882812 67.080078125 449.879882812 c 4
 74.8408203125 449.879882812 81.9404296875 449.040039062 88.380859375 447.359375 c 132
 94.8203125 445.6796875 100.919921875 443.479492188 106.680664062 440.759765625 c 5
 99.1201171875 423.119140625 l 5
 93.919921875 425.439453125 88.580078125 427.459960938 83.1005859375 429.1796875 c 132
 77.6201171875 430.899414062 72.0400390625 431.759765625 66.3603515625 431.759765625 c 4
 58.2001953125 431.759765625 52.16015625 430.419921875 48.240234375 427.739257812 c 132
 44.3203125 425.059570312 42.3603515625 421.239257812 42.3603515625 416.279296875 c 4
 42.3603515625 413.479492188 42.8203125 411.040039062 43.740234375 408.959960938 c 132
 44.66015625 406.879882812 46.240234375 404.919921875 48.48046875 403.080078125 c 132
 50.720703125 401.239257812 53.720703125 399.379882812 57.48046875 397.5 c 132
 61.240234375 395.619140625 65.919921875 393.51953125 71.5205078125 391.19921875 c 4
 77.2802734375 388.799804688 82.419921875 386.399414062 86.9404296875 384 c 132
 91.4599609375 381.599609375 95.3203125 378.899414062 98.5205078125 375.899414062 c 132
 101.720703125 372.899414062 104.16015625 369.479492188 105.840820312 365.639648438 c 132
 107.520507812 361.799804688 108.360351562 357.19921875 108.360351562 351.83984375 c 4
EndSplineSet
Validated: 1
EndChar

StartChar: period
Encoding: 46 46 12
Width: 0
VWidth: 2048
Flags: HW
LayerCount: 2
Fore
SplineSet
-73.2265625 289 m 4
 -73.2265625 292.693359375 -72.7412109375 295.828125 -71.7685546875 298.404296875 c 132
 -70.7958984375 300.979492188 -69.484375 303.069335938 -67.83203125 304.671875 c 132
 -66.1796875 306.27734375 -64.2353515625 307.443359375 -62 308.172851562 c 132
 -59.7646484375 308.901367188 -57.333984375 309.266601562 -54.7099609375 309.266601562 c 4
 -52.18359375 309.266601562 -49.77734375 308.901367188 -47.4921875 308.172851562 c 132
 -45.208984375 307.443359375 -43.240234375 306.27734375 -41.587890625 304.671875 c 132
 -39.935546875 303.069335938 -38.6240234375 300.979492188 -37.6513671875 298.404296875 c 132
 -36.6796875 295.828125 -36.193359375 292.693359375 -36.193359375 289 c 4
 -36.193359375 285.403320312 -36.6796875 282.317382812 -37.6513671875 279.741210938 c 132
 -38.6240234375 277.165039062 -39.935546875 275.051757812 -41.587890625 273.399414062 c 132
 -43.240234375 271.747070312 -45.208984375 270.53125 -47.4921875 269.75390625 c 132
 -49.77734375 268.9765625 -52.18359375 268.586914062 -54.7099609375 268.586914062 c 4
 -57.333984375 268.586914062 -59.7646484375 268.9765625 -62 269.75390625 c 132
 -64.2353515625 270.53125 -66.1796875 271.747070312 -67.83203125 273.399414062 c 132
 -69.484375 275.051757812 -70.7958984375 277.165039062 -71.7685546875 279.741210938 c 132
 -72.7412109375 282.317382812 -73.2265625 285.403320312 -73.2265625 289 c 4
EndSplineSet
Validated: 524289
EndChar

StartChar: hyphen
Encoding: 45 45 13
Width: 150
Flags: HW
LayerCount: 2
Fore
SplineSet
243 389 m 5
 233 389 l 1029
EndSplineSet
Validated: 3
EndChar

StartChar: A
Encoding: 65 65 14
Width: 0
Flags: HW
LayerCount: 2
Back
SplineSet
-1448.25195312 -395.197265625 m 1024
  Spiro
    -1448.25 -395.197 {
    0 0 z
  EndSpiro
EndSplineSet
Fore
SplineSet
73.693359375 947.138671875 m 5
 72.0517578125 70.83203125 l 5
 946.567382812 73.1044921875 l 5
 953.958007812 950.16796875 l 5
 73.693359375 947.138671875 l 5
83.546875 841.100585938 m 5
 180.44140625 941.079101562 l 5
 291.295898438 840.344726562 l 5
 391.475585938 943.3515625 l 5
 511.361328125 843.375 l 5
 632.891601562 943.3515625 l 5
 741.28125 849.43359375 l 5
 836.534179688 941.079101562 l 5
 946.567382812 847.162109375 l 5
 833.249023438 731.280273438 l 5
 936.713867188 604.038085938 l 5
 823.39453125 483.611328125 l 5
 931.787109375 379.090820312 l 5
 838.176757812 297.293945312 l 5
 944.104492188 187.471679688 l 5
 838.176757812 85.978515625 l 5
 744.56640625 181.413085938 l 5
 638.638671875 85.978515625 l 5
 529.427734375 169.293945312 l 5
 387.370117188 81.4345703125 l 5
 308.5390625 174.594726562 l 5
 189.474609375 79.1630859375 l 5
 79.44140625 177.625 l 5
 186.189453125 284.41796875 l 5
 71.2294921875 393.483398438 l 5
 187.010742188 511.635742188 l 5
 76.15625 611.61328125 l 5
 184.547851562 731.280273438 l 5
 83.546875 841.100585938 l 5
EndSplineSet
Validated: 5
EndChar

StartChar: B
Encoding: 66 66 16
Width: 0
Flags: HW
LayerCount: 2
Fore
SplineSet
148.65625 869.895507812 m 5
 877.049804688 869.895507812 l 29
 877.049804688 153.717773438 l 5
 153.633789062 153.717773438 l 29
 148.65625 869.895507812 l 5
71.369140625 875.95703125 m 5
 70 152.959960938 l 5
 122.109375 153.717773438 151.974609375 126.438476562 151.974609375 70.56640625 c 5
 877.049804688 72.6279296875 l 5
 877.049804688 129.467773438 900.4375 152.203125 954.204101562 153.717773438 c 5
 960.010742188 872.927734375 l 5
 901.108398438 871.41015625 877.879882812 892.1796875 877.049804688 948.712890625 c 5
 142.01953125 947.438476562 l 5
 141.189453125 913.094726562 112.154296875 875.95703125 71.369140625 875.95703125 c 5
EndSplineSet
Validated: 41
EndChar

StartChar: C
Encoding: 67 67 17
Width: 0
Flags: HW
LayerCount: 2
Fore
SplineSet
50 489.28125 m 5
 111.7890625 381.73046875 l 5
 154.958984375 201.700195312 334.045898438 108.395507812 529.08984375 113.633789062 c 4
 732.237304688 119.088867188 925.16796875 269.087890625 928.614257812 517.336914062 c 5
 968.397460938 406.670898438 l 5
 961.625976562 235.212890625 762.709960938 62.974609375 515.546875 57.5185546875 c 4
 250.24609375 51.6630859375 50 185.333984375 50 489.28125 c 5
61.8486328125 540.71875 m 5
 78.7783203125 814.271484375 225.362304688 977.86328125 546.864257812 972.481445312 c 4
 653.517578125 970.6953125 1009.02734375 903.897460938 973.475585938 473.6953125 c 5
 920.149414062 609.302734375 l 5
 909.9921875 699.70703125 780.453125 918.149414062 521.471679688 923.380859375 c 4
 251.454101562 928.837890625 104.171875 765.172851562 109.250976562 446.416015625 c 5
 61.8486328125 540.71875 l 5
EndSplineSet
Validated: 33
EndChar

StartChar: uni0190
Encoding: 400 400 18
Width: 0
Flags: HW
LayerCount: 2
Fore
SplineSet
201 486 m 4
 201 517 220 561 256 561 c 28
 291 561 312 521 312 486 c 4
 312 459 283 432 256 432 c 4
 228 432 201 458 201 486 c 4
128 809 m 5
 342.194335938 671.442382812 537.8046875 621.448242188 823.701171875 578 c 5
 812.798828125 577.1328125 716.360351562 577.33984375 689 512.947265625 c 4
 666.778320312 460.6484375 718.571289062 448.020507812 709.701171875 391 c 4
 702.701171875 346 680.709960938 329.225585938 656.701171875 330 c 4
 625.701171875 331 609.231445312 346.114257812 599.701171875 389 c 4
 591.701171875 425 635.383789062 446.984375 633.701171875 484 c 4
 632.701171875 506 586.724609375 531.849609375 548.701171875 526 c 4
 509.701171875 520 471.701171875 489 468.701171875 381 c 4
 466.473632812 300.80078125 486 290 488 252 c 4
 489 233 482.963867188 192.349609375 445 194 c 4
 422 195 396 209 399 247 c 4
 403.092773438 298.84765625 426 285 428 386 c 4
 431.46484375 560.965820312 383.701171875 630 325.701171875 662 c 4
 293.010742188 680.036132812 289 620 257 621 c 4
 216.708007812 622.258789062 201.76953125 696.845703125 179 731 c 4
 157 764 128 809 128 809 c 5
EndSplineSet
Validated: 33
EndChar

StartChar: uni0191
Encoding: 401 401 19
Width: 0
Flags: HW
LayerCount: 2
Fore
SplineSet
396.177734375 228 m 5
 475.177734375 269 510.177734375 327 510.177734375 397 c 4
 510.177734375 460.7890625 488.177734375 538 414.177734375 551 c 5
 425.571289062 560.874023438 443.311523438 568.44140625 459.948242188 568.44140625 c 4
 465.213867188 568.44140625 470.369140625 567.682617188 475.177734375 566 c 5
 474.522460938 574.740234375 474.020507812 582.6640625 474.020507812 590.036132812 c 4
 474.020507812 616.401367188 480.4375 635.702148438 509.177734375 660 c 5
 507.434570312 653.979492188 506.66796875 648.04296875 506.66796875 642.247070312 c 4
 506.66796875 611.459960938 528.298828125 584.620117188 540.177734375 570 c 4
 579.177734375 522 598.177734375 479 600.177734375 447 c 4
 600.708984375 438.497070312 600.975585938 430.379882812 600.975585938 422.612304688 c 4
 600.975585938 363.721679688 585.6484375 324.955078125 554.177734375 291 c 4
 516.177734375 250 465.177734375 230 396.177734375 228 c 5
284.177734375 226 m 5
 215.983398438 243.2890625 181 295.633789062 181 345.819335938 c 4
 181 347.883789062 181.059570312 349.9453125 181.177734375 352 c 4
 184.501953125 409.627929688 202.584960938 421.897460938 209.177734375 449 c 4
 212.69921875 463.478515625 213.771484375 478.875 213.771484375 492.254882812 c 4
 213.771484375 513.068359375 211.177734375 529 211.177734375 529 c 5
 229.345703125 524.458007812 245.69140625 517.293945312 245.69140625 494.4140625 c 4
 245.69140625 492.106445312 245.525390625 489.639648438 245.177734375 487 c 5
 264.177734375 514 291.177734375 531 337.177734375 535 c 4
 341.1640625 535.346679688 345.188476562 535.517578125 349.232421875 535.517578125 c 4
 408.380859375 535.517578125 471.75390625 498.904296875 480.177734375 439 c 5
 464.177734375 458 450.177734375 471 428.177734375 474 c 5
 437.095703125 459.561523438 441.32421875 443.139648438 441.32421875 426.6484375 c 4
 441.32421875 404.305664062 433.561523438 381.8359375 419.177734375 364 c 5
 419.268554688 366.626953125 419.315429688 369.189453125 419.315429688 371.6875 c 4
 419.315429688 420.986328125 401.10546875 445.341796875 341.908203125 445.341796875 c 4
 337.858398438 445.341796875 333.618164062 445.227539062 329.177734375 445 c 4
 290.177734375 443 257.408203125 394.124023438 251.177734375 353 c 4
 249.36328125 341.0234375 247.021484375 325.752929688 247.021484375 309.436523438 c 4
 247.021484375 280.796875 254.236328125 248.934570312 284.177734375 226 c 5
414.177734375 876 m 5
 416.015625 858.66796875 417.159179688 842.715820312 417.159179688 827.598632812 c 4
 417.159179688 785.151367188 408.143554688 749.293945312 380.177734375 708 c 5
 370.708984375 734.282226562 355.279296875 757.703125 329.177734375 776 c 5
 338.790039062 745.682617188 344.81640625 718.6640625 344.81640625 692.90234375 c 4
 344.81640625 648.674804688 327.053710938 608.15234375 279.177734375 561 c 5
 409.91796875 584.256835938 459.270507812 664.010742188 459.270507812 744.38671875 c 4
 459.270507812 791.883789062 442.036132812 839.598632812 414.177734375 876 c 5
EndSplineSet
Validated: 9
EndChar

StartChar: florin
Encoding: 402 402 20
Width: 0
Flags: HW
LayerCount: 2
Fore
SplineSet
647 701 m 5
 685 619 l 29
 715 666 l 5
 647 701 l 5
469 233 m 5
 370 235 l 5
 440 189 l 5
 469 233 l 5
229 334 m 5
 164 435 l 5
 163 359 l 29
 229 334 l 5
164 595 m 5
 221 711 l 5
 163 681 l 5
 164 595 l 5
381 786 m 29
 501 785 l 29
 435 818 l 29
 381 786 l 29
390 442 m 5
 407 431 l 5
 523 571 l 5
 507 580 l 5
 390 442 l 5
353 570 m 5
 354 463 l 5
 375 452 l 5
 489 590 l 5
 437 619 l 5
 353 570 l 5
331 583 m 29
 147 583 l 5
 147 689 l 29
 229 733 l 5
 331 583 l 29
333 454 m 5
 235 318 l 5
 149 351 l 5
 155 452 l 5
 333 454 l 5
441 390 m 5
 531 234 l 5
 441 171 l 5
 349 230 l 5
 441 390 l 5
548 448 m 5
 728 446 l 5
 731 339 l 5
 638 302 l 5
 548 448 l 5
729 673 m 5
 716 583 l 5
 552 583 l 5
 646 723 l 5
 729 673 l 5
439 831 m 5
 530 787 l 5
 437 643 l 5
 354 791 l 5
 439 831 l 5
331 583 m 5
 437 643 l 5
 552 583 l 5
 548 448 l 5
 441 390 l 5
 333 454 l 5
 331 583 l 5
EndSplineSet
Validated: 5
EndChar

StartChar: uni0193
Encoding: 403 403 21
Width: 0
Flags: HW
LayerCount: 2
Fore
SplineSet
527 609 m 5
 369 469 l 5
 382 441 l 5
 541 583 l 5
 527 609 l 5
430 789 m 5
 323 563 l 5
 358 494 l 5
 509 637 l 5
 430 789 l 5
568 227 m 5
 694 284 l 5
 745 200 l 5
 568 227 l 5
130 193 m 29
 194 283 l 5
 301 226 l 5
 130 193 l 29
391 231 m 5
 229 339 l 5
 163 505 l 5
 301 407 l 5
 391 231 l 5
487 227 m 5
 579 401 l 5
 739 495 l 5
 639 333 l 5
 487 227 l 5
431 863 m 5
 602 541 l 5
 441 229 l 5
 290 563 l 5
 431 863 l 5
EndSplineSet
Validated: 1
EndChar

StartChar: uni0194
Encoding: 404 404 22
Width: 0
Flags: HW
LayerCount: 2
Fore
SplineSet
145 294 m 5
 226 216 l 29
 325 231 l 5
 145 294 l 5
698 475 m 29
 549 359 l 29
 678 363 l 29
 698 475 l 29
360 854 m 5
 504 812 l 5
 454 677 l 5
 666 687 l 5
 728 556 l 5
 520 397 l 5
 461.689453125 450.181640625 425.00390625 539.357421875 270 541 c 5
 302 393 l 5
 431 348 l 5
 368 252 l 5
 374 330 l 5
 192 337 l 5
 187 581 l 5
 566 525 l 5
 610 551 l 5
 594 667 l 5
 368 599 l 5
 360 854 l 5
EndSplineSet
Validated: 9
EndChar

StartChar: uni0195
Encoding: 405 405 23
Width: 0
Flags: HW
LayerCount: 2
Fore
SplineSet
419 522 m 5
 417 506 l 5
 361 501 l 29
 361 487 l 5
 509 487 l 5
 509 503 l 5
 466 506 l 5
 464 522 l 5
 419 522 l 5
418 869 m 29
 476 803 l 29
 565 809 l 29
 572 881 l 29
 493 923 l 29
 418 869 l 29
391 752 m 29
 352 788 l 29
 376 827 l 29
 417 827 l 29
 423 795 l 29
 391 752 l 29
232 419 m 5
 196 389 l 5
 154 437 l 5
 206 461 l 5
 226 508 l 5
 274 494 l 5
 270 443 l 5
 432 380 l 5
 607 450 l 5
 613 503 l 5
 664 509 l 5
 685 463 l 5
 725 436 l 5
 709 404 l 5
 647 414 l 5
 493 353 l 5
 645 293 l 5
 729 301 l 5
 732 256 l 29
 691 241 l 5
 685 202 l 29
 619 202 l 5
 604 257 l 5
 430 328 l 5
 272 262 l 5
 278 193 l 5
 212 195 l 5
 208 255 l 5
 150 265 l 5
 160 319 l 5
 238 305 l 5
 374 356 l 5
 232 419 l 5
464 554 m 5
 467 528 l 5
 560 527 l 5
 563 550 l 5
 464 554 l 5
321 552 m 5
 322 526 l 5
 419 529 l 5
 419 553 l 5
 321 552 l 5
297 719 m 5
 594 717 l 5
 593 649 588 515 580 465 c 5
 523.228515625 461.603515625 484.115234375 459.619140625 445.5234375 459.619140625 c 4
 404.58203125 459.619140625 364.228515625 461.852539062 304 467 c 5
 298.478515625 518.071289062 293.91015625 593.91015625 293.91015625 653.098632812 c 4
 293.91015625 679.670898438 294.831054688 702.887695312 297 719 c 5
EndSplineSet
Validated: 9
EndChar

StartChar: equal
Encoding: 61 61 24
Width: 1050
Flags: HW
LayerCount: 2
Fore
SplineSet
693 389 m 5
 683 389 l 1029
EndSplineSet
Validated: 3
EndChar

StartChar: slash
Encoding: 47 47 25
Width: 75
Flags: HW
LayerCount: 2
Fore
SplineSet
26 466 m 5
 27 466 l 1029
EndSplineSet
Validated: 3
EndChar
